<svg version="1.1" id="Layer_1" xmlns="http://www.w3.org/2000/svg" xmlns:xlink="http://www.w3.org/1999/xlink" x="0px" y="0px"
	 width="100%" viewBox="0 0 2418 2262" enable-background="new 0 0 2418 2262" xml:space="preserve">
<path fill="#FFFFFF" opacity="1.000000" stroke="none" 
	d="
M1310.000000,2264.000000 
	C873.333313,2264.000000 437.666656,2264.000000 2.000000,2264.000000 
	C2.000000,1510.000000 2.000000,756.000000 2.000000,2.000000 
	C808.000000,2.000000 1614.000000,2.000000 2420.000000,2.000000 
	C2420.000000,756.000000 2420.000000,1510.000000 2420.000000,2264.000000 
	C2050.333252,2264.000000 1680.666626,2264.000000 1310.000000,2264.000000 
M1174.328857,280.392303 
	C1166.208496,281.042938 1158.062988,281.475769 1149.976196,282.415588 
	C1143.900757,283.121704 1137.900879,284.478912 1130.125732,285.557190 
	C1126.179688,286.050140 1122.207153,286.388184 1118.292114,287.061310 
	C1093.810913,291.270142 1069.628418,296.735199 1044.563965,304.625366 
	C1043.637207,304.969208 1042.721558,305.347900 1041.781982,305.651764 
	C1013.588745,314.768646 985.973450,325.293945 958.378540,339.693207 
	C952.474182,342.752411 946.317017,345.410492 940.711182,348.943420 
	C921.043579,361.338531 901.565796,374.034821 880.757629,386.932220 
	C865.075317,399.640533 848.644409,411.544189 833.900452,425.261108 
	C815.520935,442.360321 796.938904,459.448914 780.803589,480.565582 
	C771.236755,492.915771 761.167847,504.912964 752.191711,517.678528 
	C717.296753,567.304749 691.047363,621.187988 673.397522,679.283997 
	C661.085754,719.809326 653.279907,761.212402 650.580383,803.381531 
	C648.734131,832.220764 648.157288,861.247375 651.736267,890.081543 
	C654.431885,911.799866 656.469238,933.693787 660.839417,955.092957 
	C674.678528,1022.857666 700.064453,1086.171021 737.288818,1144.557617 
	C750.686401,1165.571899 764.703613,1186.197388 782.349548,1205.691162 
	C790.946838,1215.360107 798.901123,1225.710815 808.277527,1234.553711 
	C826.863770,1252.082520 845.660767,1269.485596 865.471436,1285.586182 
	C880.086487,1297.464111 896.447876,1307.193237 912.780273,1319.027466 
	C934.938782,1330.965576 956.656921,1343.838623 979.394897,1354.546143 
	C997.599792,1363.118774 1017.043701,1369.060181 1036.970703,1377.197754 
	C1047.915039,1380.491577 1058.712524,1384.440552 1069.836304,1386.933960 
	C1089.063721,1391.243774 1108.493530,1394.650513 1129.080688,1399.451904 
	C1160.175171,1403.442017 1191.375732,1405.894287 1222.745361,1405.637451 
	C1225.904053,1405.611572 1229.054932,1404.645874 1234.045654,1404.277344 
	C1259.231445,1404.642456 1284.050415,1401.168335 1308.754761,1396.831421 
	C1318.737305,1395.079102 1328.572632,1392.487061 1340.039673,1390.356689 
	C1345.460205,1389.035156 1350.979614,1388.024414 1356.283203,1386.335815 
	C1374.968750,1380.386963 1393.580200,1374.205566 1413.695801,1368.073975 
	C1431.595581,1360.211060 1449.586060,1352.545532 1467.343750,1344.374023 
	C1473.228638,1341.666016 1478.514526,1337.656250 1485.409790,1333.649780 
	C1491.409912,1330.568970 1497.757812,1328.012939 1503.346680,1324.311279 
	C1521.841431,1312.061646 1540.319580,1299.753540 1558.283081,1286.748413 
	C1567.588989,1280.011353 1575.797241,1271.758301 1585.732788,1263.712524 
	C1590.366821,1259.082397 1594.945190,1254.394897 1599.646606,1249.834229 
	C1609.099609,1240.664185 1619.361572,1232.205566 1627.943848,1222.288452 
	C1641.980713,1206.068359 1654.942139,1188.917358 1669.480835,1171.440918 
	C1713.551758,1109.907715 1744.197510,1042.277466 1761.350220,968.571838 
	C1770.244873,930.351379 1774.941162,891.560303 1775.592529,852.338562 
	C1775.818237,838.753723 1774.759033,825.149963 1774.375854,811.552246 
	C1773.438232,778.268311 1768.104614,745.595276 1760.585327,713.247925 
	C1749.243164,664.455078 1731.542969,618.019104 1707.698975,573.997131 
	C1696.000732,552.399292 1683.549194,531.201111 1667.820557,510.605591 
	C1649.906616,486.651520 1631.518066,463.157410 1608.712402,443.458344 
	C1600.190918,436.097717 1592.546265,427.721832 1583.890015,418.575897 
	C1579.840698,415.141327 1575.881958,411.592621 1571.726929,408.291046 
	C1547.643555,389.154236 1523.389160,370.278168 1495.704590,356.386475 
	C1489.033569,353.039093 1482.693970,349.031158 1475.484131,344.204285 
	C1442.560791,326.767365 1408.173340,312.906738 1372.494263,302.252991 
	C1366.498291,300.462616 1360.307739,299.324188 1353.115967,296.827637 
	C1333.100342,292.752228 1313.214600,287.778381 1293.031372,284.863098 
	C1274.186523,282.141113 1255.025635,281.605316 1234.160278,279.734375 
	C1227.909668,279.711273 1221.656250,279.559204 1215.408936,279.691833 
	C1202.275879,279.970612 1189.146118,280.398895 1174.328857,280.392303 
M807.000000,1493.729126 
	C1163.995239,1493.729126 1520.990356,1493.729126 1877.985596,1493.728516 
	C1880.985474,1493.728516 1883.995483,1493.867065 1886.981812,1493.663452 
	C1888.932861,1493.530396 1890.925049,1493.105591 1892.766602,1492.443359 
	C1897.193848,1490.851318 1898.867554,1487.390015 1898.164551,1482.943237 
	C1897.527954,1478.916504 1894.970581,1476.356323 1890.864014,1475.855347 
	C1888.232910,1475.534424 1885.541870,1475.662109 1882.877686,1475.662109 
	C1435.883667,1475.655640 988.889648,1475.655884 541.895630,1475.659058 
	C539.562866,1475.659058 537.206787,1475.505005 534.902161,1475.772583 
	C530.127136,1476.326904 526.444519,1479.850952 526.415588,1484.038452 
	C526.384216,1488.573730 528.784302,1491.780151 533.164490,1492.746948 
	C536.678528,1493.522583 540.383240,1493.689697 544.003479,1493.691772 
	C631.002319,1493.739868 718.001160,1493.729004 807.000000,1493.729126 
z"/>
<path fill="#00C8D3" opacity="1.000000" stroke="none" 
	d="
M912.031189,1317.879761 
	C896.447876,1307.193237 880.086487,1297.464111 865.471436,1285.586182 
	C845.660767,1269.485596 826.863770,1252.082520 808.277527,1234.553711 
	C798.901123,1225.710815 790.946838,1215.360107 782.218628,1204.228149 
	C782.725098,1197.864746 783.918213,1192.964722 783.920166,1188.064087 
	C784.011780,957.222961 784.013550,726.381897 783.913940,495.540802 
	C783.911682,490.308685 782.626648,485.077087 781.940002,479.845245 
	C796.938904,459.448914 815.520935,442.360321 833.900452,425.261108 
	C848.644409,411.544189 865.075317,399.640533 881.383057,387.669434 
	C882.005615,548.379395 882.002563,708.352173 882.002014,868.324951 
	C882.002014,870.657715 882.061523,872.990662 882.041199,875.323120 
	C882.004089,879.580078 884.894348,880.015076 888.060364,880.761841 
	C877.220215,904.736755 866.160889,927.862305 855.724243,951.265564 
	C837.802795,991.452515 858.778442,1036.837036 900.468811,1048.735229 
	C904.281677,1049.823486 908.152466,1050.708496 911.997681,1052.644775 
	C912.009766,1141.694336 912.020447,1229.786987 912.031189,1317.879761 
z"/>
<path fill="#0163AC" opacity="1.000000" stroke="none" 
	d="
M1584.501465,1264.190186 
	C1575.797241,1271.758301 1567.588989,1280.011353 1558.283081,1286.748413 
	C1540.319580,1299.753540 1521.841431,1312.061646 1503.346680,1324.311279 
	C1497.757812,1328.012939 1491.409912,1330.568970 1484.719971,1332.992676 
	C1484.020020,1242.418701 1484.046265,1152.501709 1483.913208,1062.584839 
	C1483.905029,1057.019043 1482.645386,1051.455200 1482.422241,1045.379150 
	C1484.668335,1043.997681 1486.479248,1043.163940 1488.249512,1042.251587 
	C1519.177002,1026.311768 1534.256836,993.794983 1531.319946,964.037354 
	C1527.843262,928.812012 1504.234985,901.523499 1470.660400,893.033264 
	C1465.205444,891.653870 1459.558105,891.034668 1453.999878,889.122681 
	C1454.000977,868.800049 1454.002075,849.418701 1454.880737,829.897522 
	C1457.088013,829.780396 1458.418335,829.841125 1459.747192,829.820190 
	C1493.783447,829.283447 1521.935913,807.072998 1529.364624,774.905823 
	C1536.854248,742.475525 1520.691406,709.777405 1489.740234,694.707703 
	C1484.383789,692.099731 1479.059692,689.424805 1473.811279,685.888672 
	C1474.601196,678.423523 1475.898560,671.851624 1475.909302,665.277588 
	C1476.046753,581.289490 1475.985962,497.301208 1476.009033,413.312958 
	C1476.015381,390.650970 1476.134644,367.989014 1476.201904,345.327026 
	C1482.693970,349.031158 1489.033569,353.039093 1495.704590,356.386475 
	C1523.389160,370.278168 1547.643555,389.154236 1571.726929,408.291046 
	C1575.881958,411.592621 1579.840698,415.141327 1583.367920,419.386169 
	C1577.806274,423.122467 1580.106201,428.003113 1580.104492,431.946930 
	C1579.989502,705.216125 1579.999878,978.485413 1580.002808,1251.754639 
	C1580.002808,1254.420288 1579.500610,1257.253296 1580.250488,1259.695679 
	C1580.792725,1261.462402 1583.023560,1262.710571 1584.501465,1264.190186 
z"/>
<path fill="#01D9DA" opacity="1.000000" stroke="none" 
	d="
M781.371826,480.205414 
	C782.626648,485.077087 783.911682,490.308685 783.913940,495.540802 
	C784.013550,726.381897 784.011780,957.222961 783.920166,1188.064087 
	C783.918213,1192.964722 782.725098,1197.864746 781.947144,1203.629150 
	C764.703613,1186.197388 750.686401,1165.571899 737.288818,1144.557617 
	C700.064453,1086.171021 674.678528,1022.857666 660.839417,955.092957 
	C656.469238,933.693787 654.431885,911.799866 651.736267,890.081543 
	C648.157288,861.247375 648.734131,832.220764 650.580383,803.381531 
	C653.279907,761.212402 661.085754,719.809326 673.397522,679.283997 
	C691.047363,621.187988 717.296753,567.304749 752.191711,517.678528 
	C761.167847,504.912964 771.236755,492.915771 781.371826,480.205414 
z"/>
<path fill="#0056A7" opacity="1.000000" stroke="none" 
	d="
M1585.117065,1263.951294 
	C1583.023560,1262.710571 1580.792725,1261.462402 1580.250488,1259.695679 
	C1579.500610,1257.253296 1580.002808,1254.420288 1580.002808,1251.754639 
	C1579.999878,978.485413 1579.989502,705.216125 1580.104492,431.946930 
	C1580.106201,428.003113 1577.806274,423.122467 1583.673828,420.002655 
	C1592.546265,427.721832 1600.190918,436.097717 1608.712402,443.458344 
	C1631.518066,463.157410 1649.906616,486.651520 1667.354248,511.853485 
	C1666.591919,517.043884 1666.037598,520.986328 1666.036865,524.928894 
	C1665.994995,736.281738 1665.999878,947.634583 1666.000854,1158.987427 
	C1666.000854,1161.650024 1665.733032,1164.355225 1666.122803,1166.960693 
	C1666.392578,1168.764526 1667.579712,1170.431152 1668.357056,1172.159058 
	C1654.942139,1188.917358 1641.980713,1206.068359 1627.943848,1222.288452 
	C1619.361572,1232.205566 1609.099609,1240.664185 1599.646606,1249.834229 
	C1594.945190,1254.394897 1590.366821,1259.082397 1585.117065,1263.951294 
z"/>
<path fill="#0198C1" opacity="1.000000" stroke="none" 
	d="
M1232.209473,1404.116455 
	C1229.054932,1404.645874 1225.904053,1405.611572 1222.745361,1405.637451 
	C1191.375732,1405.894287 1160.175171,1403.442017 1128.507812,1397.977661 
	C1127.956543,1394.505615 1127.997314,1392.507812 1127.997314,1390.510010 
	C1128.000122,1149.415161 1128.001099,908.320374 1127.989868,667.225525 
	C1127.989746,663.897705 1127.836060,660.569824 1128.242676,656.790649 
	C1147.531616,648.037170 1160.649780,634.324768 1167.899902,615.075195 
	C1169.283325,611.401672 1170.413086,607.632507 1172.429199,604.057617 
	C1177.010620,605.673035 1175.899292,609.036499 1175.943726,611.794189 
	C1175.999634,615.254150 1176.354614,618.374451 1179.849121,620.705200 
	C1170.510986,638.140381 1167.450928,655.813538 1172.374023,674.398804 
	C1178.165771,696.263428 1191.477051,712.082458 1212.007446,721.702271 
	C1225.507202,728.027893 1239.043701,734.275269 1253.011841,740.765808 
	C1251.595825,744.220520 1250.581177,746.999023 1249.341675,749.673279 
	C1235.920654,778.627808 1222.466309,807.566833 1209.017334,836.508423 
	C1191.505859,874.192139 1173.808472,911.790771 1156.526733,949.579529 
	C1137.469116,991.251526 1159.497803,1038.093872 1203.343018,1048.674438 
	C1211.891357,1050.737305 1221.107788,1050.032593 1230.014648,1051.503906 
	C1230.008911,1096.000488 1230.001953,1139.597656 1230.000610,1183.194824 
	C1229.998413,1253.083374 1229.965820,1322.972168 1230.094116,1392.860474 
	C1230.100952,1396.613770 1231.473022,1400.364502 1232.209473,1404.116455 
z"/>
<path fill="#00A5C5" opacity="1.000000" stroke="none" 
	d="
M1127.754150,657.242004 
	C1127.836060,660.569824 1127.989746,663.897705 1127.989868,667.225525 
	C1128.001099,908.320374 1128.000122,1149.415161 1127.997314,1390.510010 
	C1127.997314,1392.507812 1127.956543,1394.505615 1127.886719,1397.469727 
	C1108.493530,1394.650513 1089.063721,1391.243774 1069.836304,1386.933960 
	C1058.712524,1384.440552 1047.915039,1380.491577 1036.473022,1375.734985 
	C1035.983521,1222.132690 1036.010254,1069.993164 1035.901855,917.853760 
	C1035.898926,913.671509 1034.441528,909.490295 1033.742676,904.609741 
	C1041.163208,888.000916 1048.471436,872.076172 1055.850586,856.184265 
	C1070.003418,825.704529 1084.770996,795.493835 1098.195312,764.697205 
	C1109.388794,739.018372 1105.298584,714.479736 1088.198120,692.390564 
	C1076.959595,677.873535 1061.105957,670.906433 1043.789551,665.895874 
	C1043.915527,659.091797 1043.689941,653.247131 1044.123535,647.451782 
	C1044.320190,644.822998 1045.823853,642.292053 1047.319092,640.006714 
	C1051.621338,643.487244 1054.979492,647.283752 1059.128906,649.747681 
	C1069.098511,655.667969 1079.338257,660.802185 1091.416992,661.667297 
	C1103.928467,662.563293 1115.897095,660.806091 1127.754150,657.242004 
z"/>
<path fill="#014AA2" opacity="1.000000" stroke="none" 
	d="
M1668.918945,1171.800049 
	C1667.579712,1170.431152 1666.392578,1168.764526 1666.122803,1166.960693 
	C1665.733032,1164.355225 1666.000854,1161.650024 1666.000854,1158.987427 
	C1665.999878,947.634583 1665.994995,736.281738 1666.036865,524.928894 
	C1666.037598,520.986328 1666.591919,517.043884 1667.501953,512.524292 
	C1683.549194,531.201111 1696.000732,552.399292 1707.698975,573.997131 
	C1731.542969,618.019104 1749.243164,664.455078 1760.585327,713.247925 
	C1768.104614,745.595276 1773.438232,778.268311 1774.375854,811.552246 
	C1774.759033,825.149963 1775.818237,838.753723 1775.592529,852.338562 
	C1774.941162,891.560303 1770.244873,930.351379 1761.350220,968.571838 
	C1744.197510,1042.277466 1713.551758,1109.907715 1668.918945,1171.800049 
z"/>
<path fill="#01B3CB" opacity="1.000000" stroke="none" 
	d="
M1033.662354,905.308594 
	C1034.441528,909.490295 1035.898926,913.671509 1035.901855,917.853760 
	C1036.010254,1069.993164 1035.983521,1222.132690 1035.956543,1375.220825 
	C1017.043701,1369.060181 997.599792,1363.118774 979.394897,1354.546143 
	C956.656921,1343.838623 934.938782,1330.965576 912.405762,1318.453613 
	C912.020447,1229.786987 912.009766,1141.694336 912.880371,1052.536133 
	C946.702576,1052.166260 970.830627,1038.314331 985.010193,1008.178162 
	C993.376465,990.397095 1001.539795,972.520508 1009.936218,954.753845 
	C1017.747192,938.225952 1025.746094,921.786804 1033.662354,905.308594 
z"/>
<path fill="#0187BA" opacity="1.000000" stroke="none" 
	d="
M1233.127563,1404.196899 
	C1231.473022,1400.364502 1230.100952,1396.613770 1230.094116,1392.860474 
	C1229.965820,1322.972168 1229.998413,1253.083374 1230.000610,1183.194824 
	C1230.001953,1139.597656 1230.008911,1096.000488 1230.763428,1051.250854 
	C1257.320923,1045.083618 1275.434692,1030.513306 1286.014648,1006.440002 
	C1289.898315,997.603149 1294.035278,988.875854 1298.152954,980.143921 
	C1309.212280,956.691162 1320.323486,933.262939 1332.166016,910.177490 
	C1337.692749,913.943909 1335.929565,919.028992 1335.932007,923.453003 
	C1336.013794,1074.348022 1335.999756,1225.243164 1336.001587,1376.138306 
	C1336.001587,1379.136108 1335.739380,1382.172363 1336.139038,1385.117432 
	C1336.382202,1386.909912 1337.661255,1388.561890 1338.474854,1390.276978 
	C1328.572632,1392.487061 1318.737305,1395.079102 1308.754761,1396.831421 
	C1284.050415,1401.168335 1259.231445,1404.642456 1233.127563,1404.196899 
z"/>
<path fill="#0074B3" opacity="1.000000" stroke="none" 
	d="
M1475.843018,344.765656 
	C1476.134644,367.989014 1476.015381,390.650970 1476.009033,413.312958 
	C1475.985962,497.301208 1476.046753,581.289490 1475.909302,665.277588 
	C1475.898560,671.851624 1474.601196,678.423523 1473.079102,685.747192 
	C1444.638916,673.718628 1416.994507,660.997253 1389.416382,648.133972 
	C1376.863281,642.278748 1364.440918,636.143005 1351.973511,629.188843 
	C1351.991699,597.993774 1351.998779,567.744263 1351.999390,537.494812 
	C1352.001221,461.372528 1351.968750,385.250153 1352.093872,309.128082 
	C1352.099976,305.379089 1353.471313,301.632324 1354.207031,297.884521 
	C1360.307739,299.324188 1366.498291,300.462616 1372.494263,302.252991 
	C1408.173340,312.906738 1442.560791,326.767365 1475.843018,344.765656 
z"/>
<path fill="#017AB5" opacity="1.000000" stroke="none" 
	d="
M1339.257324,1390.316895 
	C1337.661255,1388.561890 1336.382202,1386.909912 1336.139038,1385.117432 
	C1335.739380,1382.172363 1336.001587,1379.136108 1336.001587,1376.138306 
	C1335.999756,1225.243164 1336.013794,1074.348022 1335.932007,923.453003 
	C1335.929565,919.028992 1337.692749,913.943909 1332.288330,909.455322 
	C1348.135010,872.662598 1364.611206,836.944519 1381.257690,800.857422 
	C1406.526733,810.070801 1428.169678,825.371948 1454.003052,830.037354 
	C1454.002075,849.418701 1454.000977,868.800049 1453.167480,889.340454 
	C1451.008301,890.532593 1449.679932,890.532776 1448.355347,890.603821 
	C1416.431519,892.315796 1393.019165,908.545532 1378.245117,935.675659 
	C1367.523682,955.363831 1369.508301,977.468323 1374.796021,998.798523 
	C1375.897461,1003.241943 1379.337769,1007.100037 1381.670166,1011.244812 
	C1389.016235,1024.299438 1399.973877,1033.749146 1411.619141,1042.393555 
	C1410.005859,1048.014404 1408.179321,1053.142456 1408.134888,1058.285889 
	C1407.864380,1089.532349 1408.000000,1120.782349 1408.000000,1152.031250 
	C1408.000000,1219.183105 1407.996826,1286.334961 1408.006226,1353.486816 
	C1408.006958,1358.754028 1407.218750,1364.274170 1412.219727,1368.112305 
	C1393.580200,1374.205566 1374.968750,1380.386963 1356.283203,1386.335815 
	C1350.979614,1388.024414 1345.460205,1389.035156 1339.257324,1390.316895 
z"/>
<path fill="#0087BA" opacity="1.000000" stroke="none" 
	d="
M1353.661499,297.356079 
	C1353.471313,301.632324 1352.099976,305.379089 1352.093872,309.128082 
	C1351.968750,385.250153 1352.001221,461.372528 1351.999390,537.494812 
	C1351.998779,567.744263 1351.991699,597.993774 1351.246338,629.132935 
	C1326.362671,618.837280 1302.057861,607.985168 1278.141357,596.336182 
	C1264.702515,589.790588 1250.712158,586.748352 1235.999512,585.112671 
	C1236.001465,482.817078 1236.002686,381.462189 1236.003906,280.107269 
	C1255.025635,281.605316 1274.186523,282.141113 1293.031372,284.863098 
	C1313.214600,287.778381 1333.100342,292.752228 1353.661499,297.356079 
z"/>
<path fill="#01BDCF" opacity="1.000000" stroke="none" 
	d="
M888.121277,880.037415 
	C884.894348,880.015076 882.004089,879.580078 882.041199,875.323120 
	C882.061523,872.990662 882.002014,870.657715 882.002014,868.324951 
	C882.002563,708.352173 882.005615,548.379395 882.012207,387.511719 
	C901.565796,374.034821 921.043579,361.338531 940.711182,348.943420 
	C946.317017,345.410492 952.474182,342.752411 959.140991,340.469788 
	C959.935608,345.570190 959.995728,349.894043 959.995911,354.217865 
	C960.001038,470.640320 959.959290,587.062805 960.127869,703.485046 
	C960.135803,708.942627 962.008667,714.397522 962.854980,720.489380 
	C945.302795,758.532227 927.962097,795.964417 910.488831,833.334595 
	C903.178101,848.970032 895.585693,864.473816 888.121277,880.037415 
z"/>
<path fill="#01B1CA" opacity="1.000000" stroke="none" 
	d="
M963.012939,719.853638 
	C962.008667,714.397522 960.135803,708.942627 960.127869,703.485046 
	C959.959290,587.062805 960.001038,470.640320 959.995911,354.217865 
	C959.995728,349.894043 959.935608,345.570190 959.837280,340.256836 
	C985.973450,325.293945 1013.588745,314.768646 1041.781982,305.651764 
	C1042.721558,305.347900 1043.637207,304.969208 1045.285889,305.474304 
	C1046.005127,375.466949 1045.904053,444.610992 1046.118042,513.754028 
	C1046.146484,522.953125 1047.773926,532.147156 1048.386475,541.915771 
	C1024.500000,568.990845 1024.081299,607.262268 1043.908936,633.546997 
	C1045.239258,635.310608 1045.810425,637.646851 1046.734619,639.716736 
	C1045.823853,642.292053 1044.320190,644.822998 1044.123535,647.451782 
	C1043.689941,653.247131 1043.915527,659.091797 1042.906982,665.773926 
	C1016.592407,664.548035 995.289856,673.106567 978.016357,691.519348 
	C970.519958,699.510132 967.522034,710.141541 963.012939,719.853638 
z"/>
<path fill="#07CCFF" opacity="1.000000" stroke="none" 
	d="
M806.000000,1493.729004 
	C718.001160,1493.729004 631.002319,1493.739868 544.003479,1493.691772 
	C540.383240,1493.689697 536.678528,1493.522583 533.164490,1492.746948 
	C528.784302,1491.780151 526.384216,1488.573730 526.415588,1484.038452 
	C526.444519,1479.850952 530.127136,1476.326904 534.902161,1475.772583 
	C537.206787,1475.505005 539.562866,1475.659058 541.895630,1475.659058 
	C988.889648,1475.655884 1435.883667,1475.655640 1882.877686,1475.662109 
	C1885.541870,1475.662109 1888.232910,1475.534424 1890.864014,1475.855347 
	C1894.970581,1476.356323 1897.527954,1478.916504 1898.164551,1482.943237 
	C1898.867554,1487.390015 1897.193848,1490.851318 1892.766602,1492.443359 
	C1890.925049,1493.105591 1888.932861,1493.530396 1886.981812,1493.663452 
	C1883.995483,1493.867065 1880.985474,1493.728516 1877.985596,1493.728516 
	C1520.990356,1493.729126 1163.995239,1493.729126 806.000000,1493.729004 
z"/>
<path fill="#0071B1" opacity="1.000000" stroke="none" 
	d="
M1412.957764,1368.093140 
	C1407.218750,1364.274170 1408.006958,1358.754028 1408.006226,1353.486816 
	C1407.996826,1286.334961 1408.000000,1219.183105 1408.000000,1152.031250 
	C1408.000000,1120.782349 1407.864380,1089.532349 1408.134888,1058.285889 
	C1408.179321,1053.142456 1410.005859,1048.014404 1412.337402,1042.479492 
	C1430.149292,1050.308838 1447.422119,1053.507080 1465.657227,1049.933716 
	C1471.147461,1048.857666 1476.534058,1047.252930 1481.968140,1045.890381 
	C1482.645386,1051.455200 1483.905029,1057.019043 1483.913208,1062.584839 
	C1484.046265,1152.501709 1484.020020,1242.418701 1484.052246,1333.288574 
	C1478.514526,1337.656250 1473.228638,1341.666016 1467.343750,1344.374023 
	C1449.586060,1352.545532 1431.595581,1360.211060 1412.957764,1368.093140 
z"/>
<path fill="#01A3C5" opacity="1.000000" stroke="none" 
	d="
M1048.660889,541.343567 
	C1047.773926,532.147156 1046.146484,522.953125 1046.118042,513.754028 
	C1045.904053,444.610992 1046.005127,375.466949 1046.008057,305.420959 
	C1069.628418,296.735199 1093.810913,291.270142 1118.292114,287.061310 
	C1122.207153,286.388184 1126.179688,286.050140 1131.035889,286.520599 
	C1131.964111,337.283936 1131.985107,387.083893 1131.998779,436.883820 
	C1132.005859,462.447845 1132.056519,488.012177 1131.937988,513.575623 
	C1131.920532,517.334900 1133.443481,521.726990 1128.345581,524.370422 
	C1124.105835,523.270447 1120.665161,521.889282 1117.092285,521.261536 
	C1091.003418,516.677917 1067.509399,521.154785 1048.660889,541.343567 
z"/>
<path fill="#0196C0" opacity="1.000000" stroke="none" 
	d="
M1235.082031,279.920837 
	C1236.002686,381.462189 1236.001465,482.817078 1235.270508,585.390869 
	C1230.047241,587.564575 1225.501953,588.325867 1221.068970,589.508545 
	C1203.365479,594.231750 1190.561279,605.634033 1179.977417,619.994080 
	C1176.354614,618.374451 1175.999634,615.254150 1175.943726,611.794189 
	C1175.899292,609.036499 1177.010620,605.673035 1172.386719,603.141602 
	C1171.730469,594.717041 1171.885742,587.358521 1172.831299,579.814819 
	C1177.784790,576.681580 1175.903564,572.294861 1175.908203,568.604309 
	C1176.029297,472.658264 1176.010010,376.712036 1176.015015,280.765808 
	C1189.146118,280.398895 1202.275879,279.970612 1215.408936,279.691833 
	C1221.656250,279.559204 1227.909668,279.711273 1235.082031,279.920837 
z"/>
<path fill="#0198C1" opacity="1.000000" stroke="none" 
	d="
M1175.171875,280.579071 
	C1176.010010,376.712036 1176.029297,472.658264 1175.908203,568.604309 
	C1175.903564,572.294861 1177.784790,576.681580 1172.524902,579.118469 
	C1168.034912,562.255615 1160.868164,547.901917 1147.926270,537.104980 
	C1142.145996,532.282715 1135.394287,528.624573 1129.083496,524.438110 
	C1133.443481,521.726990 1131.920532,517.334900 1131.937988,513.575623 
	C1132.056519,488.012177 1132.005859,462.447845 1131.998779,436.883820 
	C1131.985107,387.083893 1131.964111,337.283936 1131.906738,286.515137 
	C1137.900879,284.478912 1143.900757,283.121704 1149.976196,282.415588 
	C1158.062988,281.475769 1166.208496,281.042938 1175.171875,280.579071 
z"/>
<path fill="#FDFFFF" opacity="1.000000" stroke="none" 
	d="
M962.854980,720.489380 
	C967.522034,710.141541 970.519958,699.510132 978.016357,691.519348 
	C995.289856,673.106567 1016.592407,664.548035 1042.824219,666.753418 
	C1061.105957,670.906433 1076.959595,677.873535 1088.198120,692.390564 
	C1105.298584,714.479736 1109.388794,739.018372 1098.195312,764.697205 
	C1084.770996,795.493835 1070.003418,825.704529 1055.850586,856.184265 
	C1048.471436,872.076172 1041.163208,888.000916 1033.742676,904.609741 
	C1025.746094,921.786804 1017.747192,938.225952 1009.936218,954.753845 
	C1001.539795,972.520508 993.376465,990.397095 985.010193,1008.178162 
	C970.830627,1038.314331 946.702576,1052.166260 912.879028,1051.579224 
	C908.152466,1050.708496 904.281677,1049.823486 900.468811,1048.735229 
	C858.778442,1036.837036 837.802795,991.452515 855.724243,951.265564 
	C866.160889,927.862305 877.220215,904.736755 888.060364,880.761841 
	C895.585693,864.473816 903.178101,848.970032 910.488831,833.334595 
	C927.962097,795.964417 945.302795,758.532227 962.854980,720.489380 
z"/>
<path fill="#FEFEFF" opacity="1.000000" stroke="none" 
	d="
M1179.849121,620.705200 
	C1190.561279,605.634033 1203.365479,594.231750 1221.068970,589.508545 
	C1225.501953,588.325867 1230.047241,587.564575 1235.269897,586.331543 
	C1250.712158,586.748352 1264.702515,589.790588 1278.141357,596.336182 
	C1302.057861,607.985168 1326.362671,618.837280 1351.232178,630.078613 
	C1364.440918,636.143005 1376.863281,642.278748 1389.416382,648.133972 
	C1416.994507,660.997253 1444.638916,673.718628 1472.988525,686.639404 
	C1479.059692,689.424805 1484.383789,692.099731 1489.740234,694.707703 
	C1520.691406,709.777405 1536.854248,742.475525 1529.364624,774.905823 
	C1521.935913,807.072998 1493.783447,829.283447 1459.747192,829.820190 
	C1458.418335,829.841125 1457.088013,829.780396 1454.880737,829.897522 
	C1428.169678,825.371948 1406.526733,810.070801 1381.257690,800.857422 
	C1364.611206,836.944519 1348.135010,872.662598 1331.536377,909.102783 
	C1320.323486,933.262939 1309.212280,956.691162 1298.152954,980.143921 
	C1294.035278,988.875854 1289.898315,997.603149 1286.014648,1006.440002 
	C1275.434692,1030.513306 1257.320923,1045.083618 1230.764648,1050.351318 
	C1221.107788,1050.032593 1211.891357,1050.737305 1203.343018,1048.674438 
	C1159.497803,1038.093872 1137.469116,991.251526 1156.526733,949.579529 
	C1173.808472,911.790771 1191.505859,874.192139 1209.017334,836.508423 
	C1222.466309,807.566833 1235.920654,778.627808 1249.341675,749.673279 
	C1250.581177,746.999023 1251.595825,744.220520 1253.011841,740.765808 
	C1239.043701,734.275269 1225.507202,728.027893 1212.007446,721.702271 
	C1191.477051,712.082458 1178.165771,696.263428 1172.374023,674.398804 
	C1167.450928,655.813538 1170.510986,638.140381 1179.849121,620.705200 
z"/>
<path fill="#FDFEFE" opacity="1.000000" stroke="none" 
	d="
M1482.422241,1045.379150 
	C1476.534058,1047.252930 1471.147461,1048.857666 1465.657227,1049.933716 
	C1447.422119,1053.507080 1430.149292,1050.308838 1412.947754,1041.993652 
	C1399.973877,1033.749146 1389.016235,1024.299438 1381.670166,1011.244812 
	C1379.337769,1007.100037 1375.897461,1003.241943 1374.796021,998.798523 
	C1369.508301,977.468323 1367.523682,955.363831 1378.245117,935.675659 
	C1393.019165,908.545532 1416.431519,892.315796 1448.355347,890.603821 
	C1449.679932,890.532776 1451.008301,890.532593 1453.167358,890.281738 
	C1459.558105,891.034668 1465.205444,891.653870 1470.660400,893.033264 
	C1504.234985,901.523499 1527.843262,928.812012 1531.319946,964.037354 
	C1534.256836,993.794983 1519.177002,1026.311768 1488.249512,1042.251587 
	C1486.479248,1043.163940 1484.668335,1043.997681 1482.422241,1045.379150 
z"/>
<path fill="#FDFEFE" opacity="1.000000" stroke="none" 
	d="
M1128.345581,524.370422 
	C1135.394287,528.624573 1142.145996,532.282715 1147.926270,537.104980 
	C1160.868164,547.901917 1168.034912,562.255615 1171.734619,579.303711 
	C1171.885742,587.358521 1171.730469,594.717041 1171.617432,602.991455 
	C1170.413086,607.632507 1169.283325,611.401672 1167.899902,615.075195 
	C1160.649780,634.324768 1147.531616,648.037170 1128.242676,656.790649 
	C1115.897095,660.806091 1103.928467,662.563293 1091.416992,661.667297 
	C1079.338257,660.802185 1069.098511,655.667969 1059.128906,649.747681 
	C1054.979492,647.283752 1051.621338,643.487244 1047.319092,640.006714 
	C1045.810425,637.646851 1045.239258,635.310608 1043.908936,633.546997 
	C1024.081299,607.262268 1024.500000,568.990845 1048.386475,541.915771 
	C1067.509399,521.154785 1091.003418,516.677917 1117.092285,521.261536 
	C1120.665161,521.889282 1124.105835,523.270447 1128.345581,524.370422 
z"/>
</svg>