<?xml version="1.0" encoding="utf-8"?>
<!-- Generator: Adobe Illustrator 26.4.1, SVG Export Plug-In . SVG Version: 6.00 Build 0)  -->
<svg version="1.1" id="Capa_1" xmlns="http://www.w3.org/2000/svg" xmlns:xlink="http://www.w3.org/1999/xlink" x="0px" y="0px"
	 viewBox="0 0 318.4 362.8" style="enable-background:new 0 0 318.4 362.8;" xml:space="preserve">
<style type="text/css">
	.st0{fill:#FFFFFF;}
	.st1{fill:url(#SVGID_1_);}
	.st2{fill:url(#SVGID_00000005988553287588650350000000111340547809333121_);}
</style>
<g>
	<g>
		<circle class="st0" cx="159.7" cy="148.9" r="129.9"/>
		<g>
			<linearGradient id="SVGID_1_" gradientUnits="userSpaceOnUse" x1="26.0995" y1="148.5438" x2="292.3166" y2="148.5438">
				<stop  offset="0" style="stop-color:#DF6030"/>
				<stop  offset="1" style="stop-color:#E9A743"/>
			</linearGradient>
			<path class="st1" d="M159.5,15.4c-73.4,0-133.3,59.2-133.4,132C26,221.6,85,281.6,158.2,281.7c74.3,0.1,134.1-59.1,134.1-132.7
				C292.3,75.1,233,15.4,159.5,15.4z M159,268.6c-68.2-0.2-119.1-53.7-120.1-120.3c1.3-67.7,53.7-120.2,121-119.8
				c67.5,0.4,119.7,53.6,119.3,120.7C278.8,216.2,226.2,268.7,159,268.6z"/>
			
				<linearGradient id="SVGID_00000000219595855474121310000014708019275824328065_" gradientUnits="userSpaceOnUse" x1="42.6654" y1="148.5027" x2="275.742" y2="148.5027">
				<stop  offset="0" style="stop-color:#DF6030"/>
				<stop  offset="1" style="stop-color:#E9A743"/>
			</linearGradient>
			<path style="fill:url(#SVGID_00000000219595855474121310000014708019275824328065_);" d="M160,31.9
				C95.1,31.5,42.3,84.8,42.7,148.5C42.6,212.4,94.8,265,158.4,265.1c64.7,0.1,117.2-51.8,117.3-116C275.9,84.7,223.9,32.3,160,31.9
				z M121.3,169.2c0,11.8,0,23.7,0,35.5c0,2.3,0.1,4.2-3.3,3.7c-9.9-1.5-19.4-3.8-27.6-9.9c-5.9-4.4-9.3-9.8-9.1-17.7
				c0.4-15.9,0.2-31.8,0.1-47.7c0-3.4,1-4.4,4.4-4.3c10.4,0.2,20.8,0.2,31.2,0c3.3-0.1,4.5,0.9,4.5,4.3
				C121.2,145.2,121.3,157.2,121.3,169.2z M121.6,96.6c-0.2,7-0.2,14,0,21c0.1,2.6-0.7,3.4-3.3,3.3c-5.7-0.2-11.4,0-17.1,0
				c-5.5,0-11-0.1-16.6,0c-2.6,0.1-3.4-0.8-3.3-3.3c0.1-7,0.1-14,0-21c-0.1-2.5,0.8-3.4,3.3-3.3c11.2,0.1,22.4,0.1,33.6,0
				C120.9,93.3,121.7,94,121.6,96.6z M247.3,121.6c-8.6-0.2-17.2,0.2-25.8-0.2c-4.5-0.2-5.3,1.4-5.2,5.5c0.2,25.2,0,50.4,0.2,75.5
				c0,3.7-0.7,5.1-4.7,5c-10.4-0.3-20.8-0.3-31.2,0c-3.8,0.1-4.6-1.2-4.5-4.7c0.1-25.3,0-50.7,0.2-76c0-4-1-5.3-5-5.5
				c-7.2-0.3-14.1-1.9-20.6-5.1c-8.1-4-13.8-10-16.7-18.7c-1-3.1-0.3-3.9,2.9-3.9c18.5,0.1,37,0.1,55.5,0.1
				c18.4,0,36.7,0.1,55.1-0.1c3.4,0,4.5,0.9,4.4,4.4c-0.3,6.5-0.3,13,0,19.5C251.9,120.8,250.6,121.7,247.3,121.6z"/>
		</g>
	</g>
	<g>
		<path class="st0" d="M1.8,299h38.1v9.3H13.4v6.8h26.4v9.2H13.4v6.2h26.4v9.3H1.8V299z"/>
		<path class="st0" d="M74.1,339.7H62.4L43.4,299h13l11.9,27.4L80.2,299h13L74.1,339.7z"/>
		<path class="st0" d="M97.8,299h38.1v9.3h-26.4v6.8h26.4v9.2h-26.4v6.2h26.4v9.3H97.8V299z"/>
		<path class="st0" d="M152.7,299l18.2,23.6V299h11.6v40.7h-11.6l-18.2-23.6v23.6h-11.6V299H152.7z"/>
		<path class="st0" d="M226.7,299v9.3h-15.1v31.4h-11.6v-31.4h-14.1V299H226.7z"/>
		<path class="st0" d="M228.6,319.4c0-12.9,9.2-21.7,23.8-21.7c12.9,0,23.2,8.9,23.2,21.7c0,12.8-10.6,21.7-23.2,21.7
			C238.3,341.1,228.6,332.3,228.6,319.4z M264,319.4c0-6.4-3.7-12.3-11.6-12.3c-8.2,0-12.2,5.9-12.2,12.3s4.5,12.3,12.2,12.3
			C260,331.7,264,325.8,264,319.4z"/>
		<path class="st0" d="M291.4,325.4c0.2,3.1,1.9,6.2,7.9,6.2c4.5,0,6.2-1.4,6.2-3.3c0-6.4-24.3-1.5-24.3-16.9
			c0-9,7.9-13.7,17.8-13.7c12.2,0,18,5.2,18.3,14.9l-11.1,1c0-2.6-1.3-6.6-7.2-6.6c-4.5,0-6.2,1.3-6.2,3c0,7.7,25,2.8,25,17.4
			c0,9.8-8.6,13.4-18.4,13.4c-12.1,0-19-4.5-19-14.5L291.4,325.4z"/>
	</g>
</g>
</svg>
